<?xml version="1.0" encoding="utf-8"?>
<!-- Generator: Adobe Illustrator 22.1.0, SVG Export Plug-In . SVG Version: 6.00 Build 0)  -->
<svg version="1.1" id="Layer_1" xmlns="http://www.w3.org/2000/svg" xmlns:xlink="http://www.w3.org/1999/xlink" x="0px" y="0px"
	 viewBox="0 0 201 201" style="enable-background:new 0 0 201 201;" xml:space="preserve">
<style type="text/css">
	.st0{stroke:#000000;stroke-miterlimit:10;}
	.st1{fill:none;stroke:#FFFFFF;stroke-width:5.1942;stroke-miterlimit:10;}
	.st2{fill:#BFC3BA;stroke:#939598;stroke-width:0.2951;stroke-miterlimit:10;}
</style>
<circle class="st0" cx="100.5" cy="100.5" r="100"/>
<circle class="st1" cx="101.3" cy="100.5" r="86.3"/>
<g>
	<path class="st2" d="M43.2,67.7c1.7,0,6.3,0.3,10.1,0.3c3.4,0,8.3-0.3,13.9-0.3c7.6,0,12.2,1.5,15.6,4.4c3.7,3.1,5.7,8.5,5.7,14.9
		c-0.1,13.3-6.9,27-19.9,32.3c-4,1.7-9.4,2.4-14.8,2.4c-4.7,0-9-0.4-13.6-0.4c-4,0-9.8,0.3-11.6,0.3l1-2.9l4-0.4
		c1.8-0.2,2.5-0.5,3.2-2.6c0.8-2.4,1.8-5.4,6.2-20.5c4.3-14.5,5.3-19.1,5.9-21.7c0.3-1.5,0-2.1-1.6-2.3L42,70.6L43.2,67.7z
		 M60.7,72.2c-0.8,1.7-2,5.4-6.6,21.9c-4.3,15.8-5.4,20.1-5.8,22.4c-0.2,1.3,0.3,2,4.2,2c4.7,0,7.4-0.8,9.7-2
		c9-4.8,14.7-20.9,14.8-32.5c0-4.3-0.9-7.6-2.5-9.5c-2-2.6-5.3-3.7-9.4-3.7C61.8,70.8,61.2,71.1,60.7,72.2z"/>
	<path class="st2" d="M102.5,67.7c3.4,0.1,7.6,0.3,11.2,0.3c3.9,0,6.5-0.1,7.7-0.3c0.2,5.1,2.8,26.9,3.6,36.5
		c8.9-14.1,20.8-33.1,22.6-36.5c2.2,0.3,5.1,0.3,7.8,0.3c3.7,0,7.6-0.3,10.9-0.3l-0.7,2.9c-2,0.2-3.7,0.4-5.1,0.6
		c-1.3,0.2-2,0.9-2.3,2c-2.6,9.4-7.7,32.3-9.4,42.2c-0.4,2,0.3,2.3,2.3,2.5l4.6,0.6l-1,2.9c-3.2-0.3-8.3-0.3-13.1-0.3
		c-4.5,0-8.9,0.1-12.3,0.3l0.9-2.9c5.6-0.6,6.3-1.1,7.1-3.7c2.4-7.8,6.5-24,11.8-43.4h-0.1c-12.6,20.1-24.1,40.4-29.2,49.6
		c-1.7,0.2-3.5,0.4-5,0.7c-0.3-10.1-2-33-2.8-48.1h-0.1c-6.2,19.8-10.9,34.3-12.3,40.5c-0.7,3.1,0.2,3.8,7.1,4.3l-0.9,3
		c-3.3,0-6.8-0.3-10.5-0.3c-3.4,0-8.3,0.3-10.3,0.3l0.9-2.9c2-0.3,3.6-0.4,4.7-0.7c1.4-0.3,2.6-1.2,3.6-3.4
		c3.1-7.5,9.3-25,14.5-41.4c0.3-1.4,0-1.8-1.4-1.9l-5.8-0.7L102.5,67.7z"/>
</g>
</svg>
