<?xml version="1.0" encoding="utf-8"?>
<!-- Generator: Adobe Illustrator 22.1.0, SVG Export Plug-In . SVG Version: 6.00 Build 0)  -->
<svg version="1.1" id="Layer_1" xmlns="http://www.w3.org/2000/svg" xmlns:xlink="http://www.w3.org/1999/xlink" x="0px" y="0px"
	 viewBox="0 0 201 201" style="enable-background:new 0 0 201 201;" xml:space="preserve">
<style type="text/css">
	.st0{stroke:#000000;stroke-miterlimit:10;}
	.st1{fill:#BFC3BA;stroke:#939598;stroke-width:0.42;stroke-miterlimit:10;}
	.st2{fill:none;stroke:#FFFFFF;stroke-width:5.1942;stroke-miterlimit:10;}
</style>
<circle class="st0" cx="100.5" cy="100.5" r="100"/>
<g>
	<path class="st1" d="M48.7,59.3c4.4,0,14.3,0.4,20.7,0.4h12.9c8.7,0,17.5-0.2,24.7-1c-3.3,8.5-6.7,21.1-7.3,23.5H96
		c0.4-3.1,0.6-7.5,0.5-11.6c-0.2-5.2-2.9-6.4-13.4-6.4h-7c-1.2,0-2.2,0.4-2.8,1.7c-1.3,3.8-5.4,18.3-8.5,29.3
		c1.1,0.2,3.5,0.4,6.9,0.4c9.1,0,11.4-1.7,15.9-10.9l3.8,0.1c-2.9,7.6-7.4,24.8-8.5,30.3h-3.8c1.5-11.3,1-14.9-8.7-14.9
		c-3.1,0-5.8,0-6.9,0.1c-3,10.5-5.8,21.3-7.1,27.6c-0.4,1.9,0.4,2.8,2.2,3c1.7,0.2,6.3,0.7,9.1,1l-1.3,4.1c-4.4,0-13.7-0.4-18.8-0.4
		c-7.5,0-15.9,0.4-19.5,0.4l1.3-4.1l5.9-0.7c1.8-0.1,3.3-0.7,4.1-2.9c2.3-6.4,5.2-16.3,9.6-31.6c5.1-17.8,7-25.7,7.9-29.9
		c0.4-1.5-0.4-2.2-1.7-2.4l-7.9-0.7L48.7,59.3z"/>
	<path class="st1" d="M112,107.2c-0.8,2.9-1.3,7.1-1.3,10.4c-0.1,10.5,6.5,15.2,15.4,15.2c7.9,0,13.9-5.1,13.9-13.2
		c0-4-1.6-6.7-4.4-9.2c-3.4-3.5-9.6-8.7-13.9-12.8c-5-4.2-7.9-9.2-7.9-16.2c0-7.6,3.1-14.2,9-18.6c4-3.1,9.3-5.1,16.7-5.1
		c7.4,0,13.7,2.7,16.3,6.3l4.1-5.9l3.3,1.8c-3,6.7-6.5,17.7-8.2,24.3l-3.9-0.4c2.7-13.4-2.9-21.7-12.1-21.7c-7.9,0-11.9,5.4-12,12.1
		c0,3.8,1.6,7.3,5.2,10.4c5.9,5.6,11,9.7,14.5,12.9c4.8,4,7.7,8.4,7.7,14.9c0,6.4-2.1,11.9-6.2,16.2c-5.8,6.3-14,8.7-23.6,8.7
		c-8.5,0-17.3-2.8-24-7.1c2.1-5,5.2-15.1,6.9-22.5L112,107.2z"/>
</g>
<circle class="st2" cx="101.3" cy="100.5" r="86.3"/>
</svg>
