<?xml version="1.0" encoding="utf-8"?>
<!-- Generator: Adobe Illustrator 22.1.0, SVG Export Plug-In . SVG Version: 6.00 Build 0)  -->
<svg version="1.1" id="Layer_1" xmlns="http://www.w3.org/2000/svg" xmlns:xlink="http://www.w3.org/1999/xlink" x="0px" y="0px"
	 viewBox="0 0 201 201" style="enable-background:new 0 0 201 201;" xml:space="preserve">
<style type="text/css">
	.st0{stroke:#000000;stroke-miterlimit:10;}
	.st1{fill:none;stroke:#FFFFFF;stroke-width:5.1942;stroke-miterlimit:10;}
	.st2{fill:#BFC3BA;stroke:#939598;stroke-width:0.4108;stroke-miterlimit:10;}
</style>
<circle class="st0" cx="100.5" cy="100.5" r="100"/>
<circle class="st1" cx="101.3" cy="100.5" r="86.3"/>
<g>
	<path class="st2" d="M65.3,53.6c4.4,0,8.8,0.4,15.5,0.4c6.9,0,13.1-0.4,17.3-0.4l-1.1,4c-1.7,0.1-3.7,0.4-5.6,0.6
		c-1.8,0.2-2.5,1.2-3.1,3.1c-1.2,3.3-5,16.8-11,39.5c-2.6,9.7-4.3,14.9-5.9,19.8c-2.4,7.3-5.6,13.3-10.1,17.4
		c-6.3,6-14,7.8-19.2,7.8c-2.2,0-3.9-0.6-4.5-1.7c-0.6-1.1-1.1-2.5-1.3-3.5l1.1-1.2c1.4,0.7,3.5,1.3,5.7,1.3c4.4,0,6.6-1.7,9.7-10.2
		c2-5.3,4.6-13.8,8.4-27c8.6-31.5,10.4-37.9,11.2-42c0.4-2.1,0-3-2.2-3.2c-2-0.2-4.1-0.6-6.5-0.7L65.3,53.6z"/>
	<path class="st2" d="M103.6,53.6c3.2,0.1,11.7,0.4,15.5,0.4c5.9,0,10.6-0.4,17.7-0.4c10.8,0,14.7,1.8,17.5,4.7
		c2.2,2.2,3.4,5.6,3.4,9.3c0,9.2-4.7,14.6-12.3,17.7c-3.2,1.3-7.3,2.1-11.5,2.6l-0.1,0.6c8.2,1.1,12.9,3.2,15.6,6
		c2.4,2.5,3.7,5.7,3.5,10.5c-0.1,9.2-5.6,16.1-13.7,20c-5.3,2.6-13.1,3.3-20.1,3.3c-6.7,0-13.5-0.4-20.2-0.4
		c-4.5,0-11.2,0.2-15.3,0.4l1.1-4c7.8-0.6,9-1.3,9.7-3.3c3.3-9.1,6.4-19.9,9.8-31.7c2.6-9.1,6-20.7,7.8-28.8c0.4-2-1.2-2.5-9.9-3.1
		L103.6,53.6z M135,94.6c-1.9-2.7-5.4-4.3-11.9-4.3c-1.3,0-3.1,0-4.3,0.2c-3,10.5-6.6,23.4-8.3,31.2c-0.2,1.3,0.5,2.1,6.2,2.1
		c12.7,0,20-9.7,20.2-21.9C136.9,99.5,136.4,96.8,135,94.6z M141.3,61.4c-1.2-1.9-3.3-3.4-9.1-3.4c-3.2,0-4,0.8-4.4,1.9
		c-1.7,4.9-5.7,19.3-7.7,26.4c0.8,0.1,2.4,0.2,4.3,0.2c10.6,0,18.5-8,18.5-19.3C142.8,65.1,142.2,62.8,141.3,61.4z"/>
</g>
</svg>
