<?xml version="1.0" encoding="utf-8"?>
<!-- Generator: Adobe Illustrator 22.1.0, SVG Export Plug-In . SVG Version: 6.00 Build 0)  -->
<svg version="1.1" id="Layer_1" xmlns="http://www.w3.org/2000/svg" xmlns:xlink="http://www.w3.org/1999/xlink" x="0px" y="0px"
	 viewBox="0 0 201 201" style="enable-background:new 0 0 201 201;" xml:space="preserve">
<style type="text/css">
	.st0{stroke:#000000;stroke-miterlimit:10;}
	.st1{fill:none;stroke:#FFFFFF;stroke-width:5.1942;stroke-miterlimit:10;}
	.st2{fill:#BFC3BA;stroke:#939598;stroke-width:0.4176;stroke-miterlimit:10;}
</style>
<circle class="st0" cx="100.5" cy="100.5" r="100"/>
<circle class="st1" cx="101.3" cy="100.5" r="86.3"/>
<g>
	<path class="st2" d="M41.9,105.5c-0.8,2.9-1.3,7.1-1.3,10.3C40.4,126.3,47,131,55.8,131c7.8,0,13.8-5.1,13.8-13.1
		c0-4-1.6-6.6-4.3-9.1c-3.4-3.5-9.5-8.7-13.8-12.8c-4.9-4.2-7.8-9.1-7.8-16.1c0-7.6,3.1-14.1,8.9-18.5c4-3.1,9.3-5.1,16.6-5.1
		c7.3,0,13.6,2.6,16.2,6.3l4.1-5.9l3.2,1.8c-3,6.6-6.5,17.6-8.2,24.2l-3.9-0.4c2.6-13.4-2.9-21.5-12-21.5c-7.8,0-11.8,5.4-11.9,12
		c0,3.7,1.6,7.2,5.2,10.3c5.9,5.5,10.9,9.6,14.4,12.9c4.8,4,7.7,8.3,7.7,14.8c0,6.4-2,11.8-6.1,16.1c-5.8,6.3-14,8.7-23.5,8.7
		c-8.4,0-17.2-2.8-23.8-7.1c2-4.9,5.2-15,6.9-22.4L41.9,105.5z"/>
	<path class="st2" d="M106.3,57.9c2.4,0,8.9,0.4,14.3,0.4c4.8,0,11.8-0.4,19.6-0.4c10.8,0,17.3,2.2,22,6.3c5.2,4.3,8.1,12,8.1,21.1
		c-0.1,18.8-9.7,38.3-28.1,45.7c-5.7,2.4-13.4,3.4-20.9,3.4c-6.6,0-12.8-0.6-19.2-0.6c-5.7,0-13.8,0.4-16.4,0.4l1.4-4.1l5.7-0.6
		c2.5-0.2,3.5-0.7,4.6-3.7c1.2-3.4,2.5-7.6,8.8-29c6-20.4,7.5-27.1,8.3-30.7c0.5-2.2,0-3-2.3-3.2l-7.5-0.7L106.3,57.9z M131.1,64.1
		c-1.1,2.4-2.9,7.7-9.4,31c-6.1,22.4-7.6,28.5-8.2,31.8c-0.2,1.8,0.4,2.9,5.9,2.9c6.6,0,10.5-1.1,13.7-2.9
		c12.8-6.9,20.8-29.6,20.9-45.9c0-6-1.3-10.7-3.5-13.5c-2.9-3.7-7.5-5.3-13.2-5.3C132.7,62.2,131.7,62.7,131.1,64.1z"/>
</g>
</svg>
