<svg id="Layer_1" data-name="Layer 1" xmlns="http://www.w3.org/2000/svg" viewBox="0 0 591.89 627.24"><defs><style>.cls-1,.cls-13,.cls-17,.cls-19,.cls-22,.cls-6{fill:none;}.cls-1,.cls-6{stroke:#231f20;}.cls-1,.cls-12,.cls-13,.cls-14,.cls-15,.cls-16,.cls-17,.cls-18,.cls-19,.cls-20,.cls-21,.cls-22,.cls-23,.cls-6{stroke-miterlimit:10;}.cls-1{stroke-width:4px;}.cls-12,.cls-15,.cls-18,.cls-2,.cls-21{fill:#010101;}.cls-3{fill:#8c3736;}.cls-4{fill:#fff;}.cls-5{font-size:23.39px;font-family:Oxygen-Regular, Oxygen;}.cls-5,.cls-7{fill:#231f20;}.cls-7{font-size:12px;font-family:Kefa-Regular, Kefa;}.cls-8{letter-spacing:-0.04em;}.cls-9{letter-spacing:-0.03em;}.cls-10{letter-spacing:-0.02em;}.cls-11{letter-spacing:-0.07em;}.cls-12,.cls-15,.cls-18,.cls-21{stroke:#010101;}.cls-12{stroke-width:0.22px;}.cls-13,.cls-17,.cls-19,.cls-22{stroke:#fff;}.cls-13{stroke-width:1.12px;}.cls-14,.cls-16,.cls-20,.cls-23{fill:#c0c4ba;stroke:#939598;}.cls-14{stroke-width:0.06px;}.cls-15{stroke-width:0.22px;}.cls-16{stroke-width:0.09px;}.cls-17{stroke-width:1.13px;}.cls-18{stroke-width:0.2px;}.cls-19{stroke-width:1.05px;}.cls-20{stroke-width:0.08px;}.cls-21{stroke-width:0.2px;}.cls-22{stroke-width:1.03px;}.cls-23{stroke-width:0.08px;}</style></defs><title>TimeLine</title><line class="cls-1" x1="302.71" y1="31.57" x2="302.71" y2="598.6"/><path class="cls-2" d="M369,84.34a1.29,1.29,0,0,0-1.64-.46,21.17,21.17,0,0,1-2.55,1l-.24-1.12-29.7-.31-.27,1.11a19.61,19.61,0,0,1-2.53-1,1.28,1.28,0,0,0-1.64.43,1,1,0,0,0,.48,1.47,24.19,24.19,0,0,0,10.26,2.4l17,.17a24,24,0,0,0,10.31-2.18A1,1,0,0,0,369,84.34Z" transform="translate(-47.67 -67.76)"/><path class="cls-2" d="M362.26,73.05a7,7,0,0,0-6.92-5.17,7.76,7.76,0,0,0-3.33.71,5.26,5.26,0,0,1-4.34,0,7.81,7.81,0,0,0-6.35-.2,6.49,6.49,0,0,0-4,4.45l-2,8.46,28.73.3Z" transform="translate(-47.67 -67.76)"/><polygon class="cls-3" points="287.68 13.49 287.17 15.65 316.87 15.96 316.41 13.79 287.68 13.49"/><rect class="cls-4" x="273.71" y="460.82" width="58" height="27.5"/><text class="cls-5" transform="translate(277.05 483.52)">1966</text><rect class="cls-4" x="272.02" y="528.32" width="58" height="27.5"/><text class="cls-5" transform="translate(275.35 551.02)">1967</text><rect class="cls-4" x="273.38" y="67.74" width="58" height="27.5"/><text class="cls-5" transform="translate(276.71 87.44)">1938</text><line class="cls-6" x1="336.05" y1="81.9" x2="369.38" y2="81.9"/><text class="cls-7" transform="translate(380.71 77.92)">Dean Martin began touring <tspan x="0" y="14.4">with </tspan><tspan class="cls-8" x="27.81" y="14.4">W</tspan><tspan x="38.3" y="14.4">atkins</tspan></text><rect class="cls-4" x="273.71" y="192.25" width="58" height="27.5"/><text class="cls-5" transform="translate(277.05 214.95)">1950</text><line class="cls-6" x1="331.71" y1="204.58" x2="365.05" y2="204.58"/><text class="cls-7" transform="translate(376.38 200.6)">Joey Bishop started a <tspan x="0" y="14.4">friendship with </tspan><tspan class="cls-9" x="86.35" y="14.4">F</tspan><tspan x="92.55" y="14.4">rank Sinatra, </tspan><tspan x="0" y="28.8">which resulted in Bishop&apos;s </tspan><tspan x="0" y="43.2">inclusion in the Rat </tspan><tspan class="cls-10" x="107.86" y="43.2">P</tspan><tspan x="114.87" y="43.2">ack</tspan></text><rect class="cls-4" x="271.35" y="327.09" width="58" height="27.5"/><text class="cls-5" transform="translate(274.69 349.79)">1964</text><line class="cls-6" x1="330.69" y1="339.43" x2="364.02" y2="339.43"/><text class="cls-7" transform="translate(375.35 335.44)">Dean Martin he recorded his <tspan x="0" y="14.4">blockbuster hit, &quot;</tspan><tspan class="cls-9" x="93.88" y="14.4">E</tspan><tspan x="100.55" y="14.4">verybody </tspan><tspan x="0" y="28.8">Loves Somebody,&quot;</tspan></text><line class="cls-6" x1="337.05" y1="473.15" x2="370.38" y2="473.15"/><text class="cls-7" transform="translate(381.71 469.17)"><tspan class="cls-9">F</tspan><tspan x="6.21" y="0" xml:space="preserve">rank Sinatra  Sinatra had a </tspan><tspan x="0" y="14.4">big hit in 1966 with the </tspan><tspan x="0" y="28.8">Billboard No. 1 track </tspan><tspan x="0" y="43.2">&quot;Strangers in the Night,&quot; </tspan><tspan x="0" y="57.6">which won a Grammy for </tspan><tspan x="0" y="72">record of the year.</tspan></text><rect class="cls-4" x="273.66" y="129.9" width="58" height="27.5"/><text class="cls-5" transform="translate(277 152.6)">1947</text><line class="cls-6" x1="230.38" y1="148.38" x2="263.71" y2="148.38"/><text class="cls-7" transform="translate(69.05 143.95)">Sammy Davis Jr.career <tspan x="0" y="14.4">began to rise to new </tspan><tspan x="0" y="28.8">heights in 1947 when the </tspan><tspan x="0" y="43.2">trio opened for </tspan><tspan class="cls-9" x="83.47" y="43.2">F</tspan><tspan x="89.67" y="43.2">rank Sina</tspan><tspan x="141.1" y="43.2">-</tspan><tspan x="0" y="57.6">tra at the Capitol Theatre in </tspan><tspan x="0" y="72">New </tspan><tspan class="cls-11" x="27.47" y="72">Y</tspan><tspan x="34.36" y="72">ork </tspan></text><rect class="cls-4" x="272.02" y="251.14" width="58" height="27.5"/><text class="cls-5" transform="translate(275.35 273.84)">1955</text><line class="cls-6" x1="228.02" y1="263.92" x2="261.35" y2="263.92"/><text class="cls-7" transform="translate(65.05 259.49)">Sammy Davis Jr. two <tspan x="0" y="14.4">albums including Just for </tspan><tspan x="0" y="28.8">Lovers, were released to </tspan><tspan x="0" y="43.2">both critical acclaim and </tspan><tspan x="0" y="57.6">commercial success. </tspan></text><rect class="cls-4" x="270.94" y="391.03" width="58" height="27.5"/><text class="cls-5" transform="translate(274.28 413.73)">1965</text><line class="cls-6" x1="225.66" y1="403.81" x2="259" y2="403.81"/><text class="cls-7" transform="translate(61.05 399.38)"><tspan class="cls-9">F</tspan><tspan x="6.21" y="0">rank Sinatra Achievement </tspan><tspan class="cls-9" x="0" y="14.4">A</tspan><tspan x="7.59" y="14.4">ward and headlined the </tspan><tspan x="0" y="28.8">1965 Newport Jazz </tspan><tspan class="cls-9" x="106.65" y="28.8">F</tspan><tspan x="112.86" y="28.8">estival </tspan><tspan x="0" y="43.2">with Count Basie&apos;s </tspan><tspan x="0" y="57.6">Orchestra. </tspan></text><line class="cls-6" x1="225.66" y1="547.81" x2="259" y2="547.81"/><text class="cls-7" transform="translate(61.05 543.38)"><tspan class="cls-9">F</tspan><tspan x="6.21" y="0">rank Sinatra duet </tspan><tspan x="0" y="14.4">&quot;Something Stupid&quot; with </tspan><tspan x="0" y="28.8">daughter Nancy, No. 1 for </tspan><tspan x="0" y="43.2">four weeks with &quot;Something </tspan><tspan x="0" y="57.6">Stupid&quot; in spring 1967.</tspan><tspan x="0" y="72"> </tspan></text><circle class="cls-12" cx="570.21" cy="78.32" r="21.56"/><circle class="cls-13" cx="570.39" cy="78.32" r="18.61"/><path class="cls-14" d="M605.53,139c.36,0,1.35.07,2.17.07s1.79-.07,3-.07a4.92,4.92,0,0,1,3.37.95,4.15,4.15,0,0,1,1.22,3.22,7.41,7.41,0,0,1-4.29,7,8.44,8.44,0,0,1-3.19.52c-1,0-1.94-.09-2.93-.09s-2.11.07-2.5.07l.21-.63.87-.08c.38,0,.53-.11.69-.56s.38-1.17,1.33-4.42,1.15-4.12,1.27-4.68c.07-.33,0-.46-.34-.5l-1.14-.13Zm3.77,1a44.35,44.35,0,0,0-1.42,4.72c-.93,3.41-1.17,4.33-1.25,4.83,0,.28.06.43.9.43a4.18,4.18,0,0,0,2.09-.43c1.94-1,3.17-4.51,3.19-7a3.27,3.27,0,0,0-.53-2.05,2.44,2.44,0,0,0-2-.8C609.54,139.67,609.41,139.74,609.3,140Z" transform="translate(-47.67 -67.76)"/><path class="cls-14" d="M618.31,139c.74,0,1.64.07,2.42.07a11.54,11.54,0,0,0,1.66-.07c0,1.1.6,5.81.78,7.88,1.91-3,4.48-7.14,4.87-7.88a12.63,12.63,0,0,0,1.68.07c.8,0,1.64-.07,2.35-.07l-.15.63c-.43,0-.8.09-1.1.13a.56.56,0,0,0-.5.43c-.56,2-1.66,7-2,9.1-.09.43.06.5.49.54l1,.13-.22.62c-.69-.06-1.79-.06-2.83-.06s-1.91,0-2.65.06l.2-.62c1.2-.13,1.36-.24,1.53-.8.52-1.68,1.4-5.17,2.54-9.36h0c-2.72,4.34-5.2,8.71-6.3,10.7-.36,0-.75.08-1.07.15-.07-2.18-.44-7.12-.61-10.37h0c-1.34,4.27-2.35,7.39-2.65,8.73-.15.67,0,.82,1.53.93l-.2.64c-.71,0-1.46-.06-2.26-.06s-1.79.06-2.22.06l.19-.62c.43-.07.78-.09,1-.15a1.11,1.11,0,0,0,.77-.73c.67-1.62,2-5.4,3.13-8.93.06-.3,0-.39-.3-.41l-1.25-.15Z" transform="translate(-47.67 -67.76)"/><circle class="cls-12" cx="570.21" cy="349.04" r="21.56"/><circle class="cls-13" cx="570.39" cy="349.04" r="18.61"/><path class="cls-14" d="M605.53,409.73c.36,0,1.35.06,2.17.06s1.79-.06,3-.06a4.92,4.92,0,0,1,3.37.94,4.15,4.15,0,0,1,1.22,3.22,7.4,7.4,0,0,1-4.29,7,8.44,8.44,0,0,1-3.19.52c-1,0-1.94-.09-2.93-.09s-2.11.07-2.5.07l.21-.63.87-.08c.38-.05.53-.11.69-.56s.38-1.17,1.33-4.42,1.15-4.12,1.27-4.68c.07-.33,0-.46-.34-.5l-1.14-.13Zm3.77,1a44.35,44.35,0,0,0-1.42,4.72c-.93,3.41-1.17,4.33-1.25,4.83,0,.28.06.43.9.43a4.18,4.18,0,0,0,2.09-.43c1.94-1,3.17-4.51,3.19-7a3.27,3.27,0,0,0-.53-2.05,2.44,2.44,0,0,0-2-.8C609.54,410.39,609.41,410.46,609.3,410.7Z" transform="translate(-47.67 -67.76)"/><path class="cls-14" d="M618.31,409.73c.74,0,1.64.06,2.42.06a14.08,14.08,0,0,0,1.66-.06c0,1.1.6,5.8.78,7.87,1.91-3,4.48-7.14,4.87-7.87a14.72,14.72,0,0,0,1.68.06c.8,0,1.64-.06,2.35-.06l-.15.62c-.43,0-.8.09-1.1.13a.56.56,0,0,0-.5.43c-.56,2-1.66,7-2,9.1-.09.43.06.5.49.54l1,.13-.22.63c-.69-.07-1.79-.07-2.83-.07s-1.91,0-2.65.07l.2-.63c1.2-.13,1.36-.24,1.53-.8.52-1.68,1.4-5.17,2.54-9.36h0c-2.72,4.34-5.2,8.72-6.3,10.7-.36,0-.75.09-1.07.15-.07-2.18-.44-7.12-.61-10.37h0c-1.34,4.27-2.35,7.39-2.65,8.73-.15.67,0,.82,1.53.93l-.2.65c-.71,0-1.46-.07-2.26-.07s-1.79.07-2.22.07l.19-.63c.43-.06.78-.09,1-.15a1.11,1.11,0,0,0,.77-.73c.67-1.62,2-5.4,3.13-8.93.06-.3,0-.39-.3-.41l-1.25-.15Z" transform="translate(-47.67 -67.76)"/><circle class="cls-15" cx="569.73" cy="496.39" r="21.82"/><path class="cls-16" d="M606.1,555.16c1,0,3.12.09,4.51.09h2.82a52.76,52.76,0,0,0,5.38-.22,53.45,53.45,0,0,0-1.59,5.13h-.81a16.53,16.53,0,0,0,.11-2.53c0-1.14-.63-1.4-2.92-1.4h-1.53a.61.61,0,0,0-.61.37c-.28.83-1.18,4-1.85,6.39a8.86,8.86,0,0,0,1.5.09c2,0,2.49-.37,3.47-2.38l.83,0a62.25,62.25,0,0,0-1.85,6.61h-.83c.33-2.46.22-3.25-1.9-3.25-.68,0-1.27,0-1.51,0-.65,2.29-1.26,4.64-1.54,6-.09.41.08.61.48.65l2,.22-.28.89c-1,0-3-.08-4.1-.08-1.64,0-3.47.08-4.26.08l.29-.89,1.28-.15a.9.9,0,0,0,.9-.64c.5-1.39,1.13-3.55,2.09-6.89,1.11-3.88,1.53-5.61,1.72-6.52.09-.33-.08-.48-.37-.53l-1.72-.15Z" transform="translate(-47.67 -67.76)"/><path class="cls-16" d="M619.91,565.61a9.22,9.22,0,0,0-.29,2.27A3,3,0,0,0,623,571.2a2.83,2.83,0,0,0,3-2.88,2.5,2.5,0,0,0-1-2c-.74-.76-2.09-1.9-3-2.79A4.37,4.37,0,0,1,620.3,560a4.9,4.9,0,0,1,2-4.06,5.74,5.74,0,0,1,3.64-1.11,4.49,4.49,0,0,1,3.56,1.38l.9-1.29.72.39a38.91,38.91,0,0,0-1.79,5.3l-.85-.08c.58-2.93-.64-4.74-2.64-4.74a2.48,2.48,0,0,0-2.62,2.64,2.93,2.93,0,0,0,1.13,2.27c1.29,1.22,2.4,2.12,3.17,2.81a4,4,0,0,1,1.68,3.26,5,5,0,0,1-1.36,3.53,6.66,6.66,0,0,1-5.15,1.9,10,10,0,0,1-5.23-1.55,36.79,36.79,0,0,0,1.5-4.91Z" transform="translate(-47.67 -67.76)"/><circle class="cls-17" cx="569.9" cy="496.39" r="18.83"/><circle class="cls-15" cx="21.93" cy="421.74" r="21.82"/><path class="cls-16" d="M58.29,480.51c1,0,3.12.09,4.52.09h2.81a52.84,52.84,0,0,0,5.39-.22,53.45,53.45,0,0,0-1.59,5.13h-.81a17.92,17.92,0,0,0,.11-2.53c0-1.14-.63-1.4-2.92-1.4H64.27a.61.61,0,0,0-.61.37c-.28.83-1.18,4-1.86,6.39a9,9,0,0,0,1.51.09c2,0,2.49-.37,3.47-2.38l.83,0a62.49,62.49,0,0,0-1.86,6.61h-.83c.33-2.46.22-3.25-1.89-3.25-.68,0-1.27,0-1.51,0-.65,2.3-1.26,4.65-1.55,6-.08.41.09.61.48.65l2,.22-.29.89c-1,0-3-.08-4.1-.08-1.63,0-3.47.08-4.25.08l.28-.89,1.29-.15a.9.9,0,0,0,.89-.64c.51-1.39,1.14-3.55,2.1-6.89,1.11-3.88,1.53-5.61,1.72-6.52.09-.33-.09-.48-.37-.53L58,481.47Z" transform="translate(-47.67 -67.76)"/><path class="cls-16" d="M72.1,491a9.73,9.73,0,0,0-.28,2.27,3,3,0,0,0,3.36,3.31,2.82,2.82,0,0,0,3-2.87,2.5,2.5,0,0,0-1-2c-.74-.77-2.09-1.9-3-2.79a4.38,4.38,0,0,1-1.73-3.54,4.9,4.9,0,0,1,2-4.06,5.74,5.74,0,0,1,3.64-1.11,4.49,4.49,0,0,1,3.56,1.38l.89-1.29.72.39a40.33,40.33,0,0,0-1.79,5.3l-.85-.08c.59-2.93-.63-4.74-2.64-4.74a2.49,2.49,0,0,0-2.62,2.64A2.92,2.92,0,0,0,76.51,486c1.29,1.22,2.4,2.12,3.16,2.81a4,4,0,0,1,1.68,3.25A5,5,0,0,1,80,495.63a6.67,6.67,0,0,1-5.15,1.9A10,10,0,0,1,69.62,496a38.32,38.32,0,0,0,1.5-4.91Z" transform="translate(-47.67 -67.76)"/><circle class="cls-17" cx="22.1" cy="421.74" r="18.83"/><circle class="cls-15" cx="21.93" cy="569.62" r="21.82"/><path class="cls-16" d="M58.29,628.4c1,0,3.12.08,4.52.08h2.81a53,53,0,0,0,5.39-.21c-.72,1.85-1.46,4.6-1.59,5.12h-.81a17.77,17.77,0,0,0,.11-2.53c0-1.13-.63-1.39-2.92-1.39H64.27a.6.6,0,0,0-.61.37c-.28.83-1.18,4-1.86,6.39a10.3,10.3,0,0,0,1.51.09c2,0,2.49-.38,3.47-2.38l.83,0a62.49,62.49,0,0,0-1.86,6.61h-.83c.33-2.47.22-3.25-1.89-3.25-.68,0-1.27,0-1.51,0-.65,2.29-1.26,4.65-1.55,6-.08.42.09.61.48.66l2,.21-.29.9c-1,0-3-.09-4.1-.09-1.63,0-3.47.09-4.25.09l.28-.9,1.29-.15a.88.88,0,0,0,.89-.63c.51-1.4,1.14-3.56,2.1-6.89,1.11-3.89,1.53-5.61,1.72-6.53.09-.32-.09-.48-.37-.52L58,629.36Z" transform="translate(-47.67 -67.76)"/><path class="cls-16" d="M72.1,638.85a9.73,9.73,0,0,0-.28,2.27,3,3,0,0,0,3.36,3.31,2.82,2.82,0,0,0,3-2.88,2.53,2.53,0,0,0-1-2c-.74-.76-2.09-1.89-3-2.79a4.36,4.36,0,0,1-1.73-3.53,4.9,4.9,0,0,1,2-4.06,5.68,5.68,0,0,1,3.64-1.11,4.52,4.52,0,0,1,3.56,1.37l.89-1.29.72.4a40.33,40.33,0,0,0-1.79,5.3l-.85-.09C81.22,630.82,80,629,78,629a2.49,2.49,0,0,0-2.62,2.64,2.92,2.92,0,0,0,1.14,2.27c1.29,1.22,2.4,2.11,3.16,2.81A4,4,0,0,1,81.35,640,5,5,0,0,1,80,643.51a6.64,6.64,0,0,1-5.15,1.9,10,10,0,0,1-5.23-1.55,38.13,38.13,0,0,0,1.5-4.9Z" transform="translate(-47.67 -67.76)"/><circle class="cls-17" cx="22.1" cy="569.62" r="18.83"/><circle class="cls-18" cx="570.21" cy="219.95" r="20.23"/><circle class="cls-19" cx="570.38" cy="219.95" r="17.46"/><path class="cls-20" d="M610.76,278.22c.89,0,1.78.08,3.14.08s2.65-.08,3.5-.08l-.23.81c-.34,0-.74.08-1.13.12s-.5.25-.63.63c-.24.67-1,3.4-2.22,8-.53,2-.87,3-1.2,4a8,8,0,0,1-2,3.52,5.76,5.76,0,0,1-3.88,1.58c-.45,0-.79-.12-.91-.35a2.45,2.45,0,0,1-.27-.7l.23-.25a2.67,2.67,0,0,0,1.15.27c.89,0,1.33-.35,2-2.07.41-1.07.93-2.79,1.7-5.46,1.74-6.37,2.1-7.67,2.27-8.5.08-.42,0-.6-.45-.65s-.83-.12-1.31-.14Z" transform="translate(-47.67 -67.76)"/><path class="cls-20" d="M618.51,278.22c.65,0,2.37.08,3.14.08,1.19,0,2.14-.08,3.58-.08,2.18,0,3,.37,3.54.95a2.7,2.7,0,0,1,.68,1.89,3.59,3.59,0,0,1-2.48,3.58,9.53,9.53,0,0,1-2.33.52l0,.12a5.26,5.26,0,0,1,3.16,1.22,2.69,2.69,0,0,1,.7,2.12,4.5,4.5,0,0,1-2.77,4.05,9.85,9.85,0,0,1-4.06.67c-1.36,0-2.74-.08-4.09-.08-.91,0-2.27,0-3.1.08l.23-.81c1.57-.12,1.82-.27,2-.67.67-1.84,1.29-4,2-6.41.53-1.84,1.21-4.19,1.58-5.83.08-.4-.24-.51-2-.63Zm6.35,8.3c-.38-.55-1.09-.87-2.41-.87a6.26,6.26,0,0,0-.87,0c-.6,2.12-1.33,4.73-1.67,6.31,0,.26.1.43,1.25.43,2.57,0,4.05-2,4.09-4.43A2.72,2.72,0,0,0,624.86,286.52Zm1.28-6.72c-.25-.38-.67-.69-1.84-.69-.65,0-.81.17-.89.39-.35,1-1.16,3.9-1.56,5.34a8,8,0,0,0,.87,0,3.7,3.7,0,0,0,3.74-3.9A2.64,2.64,0,0,0,626.14,279.8Z" transform="translate(-47.67 -67.76)"/><circle class="cls-21" cx="21.93" cy="172.37" r="19.76"/><circle class="cls-22" cx="22.08" cy="172.37" r="17.06"/><path class="cls-23" d="M58,241.12a8.42,8.42,0,0,0-.26,2,2.73,2.73,0,0,0,3,3,2.55,2.55,0,0,0,2.73-2.59,2.29,2.29,0,0,0-.85-1.8c-.68-.69-1.88-1.72-2.73-2.53a4,4,0,0,1-1.54-3.18,4.44,4.44,0,0,1,1.76-3.66,5.15,5.15,0,0,1,3.28-1,4,4,0,0,1,3.2,1.25l.81-1.17.63.36a35.9,35.9,0,0,0-1.62,4.78l-.77-.08c.51-2.65-.57-4.25-2.37-4.25a2.23,2.23,0,0,0-2.35,2.37,2.62,2.62,0,0,0,1,2c1.17,1.09,2.16,1.9,2.85,2.55a3.58,3.58,0,0,1,1.52,2.92,4.44,4.44,0,0,1-1.2,3.19,6,6,0,0,1-4.65,1.72,8.92,8.92,0,0,1-4.7-1.41,35.24,35.24,0,0,0,1.36-4.42Z" transform="translate(-47.67 -67.76)"/><path class="cls-23" d="M70.74,231.71c.47,0,1.76.08,2.83.08s2.33-.08,3.87-.08A6.23,6.23,0,0,1,81.79,233a5.34,5.34,0,0,1,1.6,4.18c0,3.71-1.92,7.56-5.56,9a11.22,11.22,0,0,1-4.13.67c-1.3,0-2.53-.12-3.79-.12s-2.73.08-3.24.08l.27-.81,1.13-.12c.5,0,.69-.14.91-.73s.49-1.5,1.74-5.73c1.19-4,1.48-5.36,1.64-6.07.1-.43,0-.59-.45-.63l-1.49-.14Zm4.9,1.23a57.79,57.79,0,0,0-1.86,6.12c-1.2,4.43-1.5,5.63-1.62,6.29,0,.35.08.57,1.17.57a5.31,5.31,0,0,0,2.71-.57c2.53-1.37,4.11-5.85,4.13-9.07a4.42,4.42,0,0,0-.69-2.67,3.16,3.16,0,0,0-2.61-1.05C76,232.56,75.76,232.66,75.64,232.94Z" transform="translate(-47.67 -67.76)"/><circle class="cls-21" cx="21.93" cy="284.66" r="19.76"/><circle class="cls-22" cx="22.08" cy="284.66" r="17.06"/><path class="cls-23" d="M58,353.41a8.42,8.42,0,0,0-.26,2,2.72,2.72,0,0,0,3,3,2.55,2.55,0,0,0,2.73-2.58,2.29,2.29,0,0,0-.85-1.8c-.68-.69-1.88-1.72-2.73-2.53a4,4,0,0,1-1.54-3.18,4.43,4.43,0,0,1,1.76-3.66,5.15,5.15,0,0,1,3.28-1,4,4,0,0,1,3.2,1.25l.81-1.17.63.36a35.42,35.42,0,0,0-1.62,4.78l-.77-.08c.51-2.65-.57-4.25-2.37-4.25a2.23,2.23,0,0,0-2.35,2.37,2.64,2.64,0,0,0,1,2c1.17,1.09,2.16,1.9,2.85,2.55a3.58,3.58,0,0,1,1.52,2.92,4.42,4.42,0,0,1-1.2,3.18,6,6,0,0,1-4.65,1.72,8.91,8.91,0,0,1-4.7-1.4,34.92,34.92,0,0,0,1.36-4.43Z" transform="translate(-47.67 -67.76)"/><path class="cls-23" d="M70.74,344c.47,0,1.76.08,2.83.08s2.33-.08,3.87-.08a6.23,6.23,0,0,1,4.35,1.24,5.32,5.32,0,0,1,1.6,4.17c0,3.72-1.92,7.57-5.56,9a11,11,0,0,1-4.13.68c-1.3,0-2.53-.12-3.79-.12s-2.73.08-3.24.08l.27-.81,1.13-.12c.5,0,.69-.14.91-.73s.49-1.5,1.74-5.73c1.19-4,1.48-5.36,1.64-6.07.1-.44,0-.59-.45-.63l-1.49-.14Zm4.9,1.22a58.66,58.66,0,0,0-1.86,6.13c-1.2,4.43-1.5,5.63-1.62,6.28,0,.36.08.58,1.17.58a5.2,5.2,0,0,0,2.71-.58c2.53-1.36,4.11-5.85,4.13-9.07a4.47,4.47,0,0,0-.69-2.67,3.15,3.15,0,0,0-2.61-1C76,344.85,75.76,345,75.64,345.22Z" transform="translate(-47.67 -67.76)"/></svg>