<svg id="Layer_1" data-name="Layer 1" xmlns="http://www.w3.org/2000/svg" viewBox="0 0 81.37 42.61"><defs><style>.cls-1{fill:#010101;}.cls-2{fill:#8c3736;}</style></defs><title>hat</title><path class="cls-1" d="M111.85,49.26a2.7,2.7,0,0,0-3.46-.86,42.72,42.72,0,0,1-5.28,2.17l-.57-2.33-62.2,1.2-.47,2.34a40.81,40.81,0,0,1-5.36-2,2.72,2.72,0,0,0-3.43,1,2.15,2.15,0,0,0,1.11,3,50.39,50.39,0,0,0,21.63,4.39l35.6-.68a50.49,50.49,0,0,0,21.44-5.22A2.15,2.15,0,0,0,111.85,49.26Z" transform="translate(-30.8 -15.65)"/><path class="cls-1" d="M97.1,26c-1.52-6.15-7.74-10.52-14.8-10.38a16.3,16.3,0,0,0-6.93,1.68,11,11,0,0,1-9.08.16,16.35,16.35,0,0,0-13.3,0A13.54,13.54,0,0,0,44.92,27L41.27,44.89l60.17-1.16Z" transform="translate(-30.8 -15.65)"/><polygon class="cls-2" points="10.47 29.23 9.54 33.78 71.74 32.59 70.64 28.07 10.47 29.23"/></svg>