<svg id="Layer_1" data-name="Layer 1" xmlns="http://www.w3.org/2000/svg" viewBox="0 0 374.28 142.9"><defs><style>.cls-1{fill:#231f20;}.cls-2{fill:#8c3736;}.cls-3{fill:#010101;}</style></defs><title>RatpackMusic</title><path class="cls-1" d="M26.9,59.2H14.73V89H0V13.47H29.05c17.7,0,30.28,6.24,30.28,22.71,0,11-6.44,18.31-17,21.38L60.15,89H43.78Zm1.33-5.32c11.36,0,16-4.5,16-17.8s-4.7-17.49-16.37-17.49H14.73V53.88Z"/><path class="cls-1" d="M65,74.64C65,64.41,71.3,59.3,84.39,59.3H97.08V53.77c0-8.59-4.71-9.92-13.1-9.92a98.07,98.07,0,0,0-12.89.92v-4.4a100.84,100.84,0,0,1,16.27-1.53c15.85,0,23.63,4.09,23.63,16.06V89H97.18V86.1c-3.17,2.15-8,3.68-13.91,3.68C70.89,89.78,65,83.54,65,74.64Zm32.13,8.6V63.39H88.89c-7.26,0-9.51,2.86-9.51,10.54,0,7.87,2.25,10.74,9.2,10.74A24.74,24.74,0,0,0,97.08,83.24Z"/><path class="cls-1" d="M117.23,39.35h7.06V25.13H139V39.35h12.07v4.71H139V77.3c0,5.53,2,7.16,7.16,7.16a24.6,24.6,0,0,0,4.91-.61v4.4A52.2,52.2,0,0,1,140,89.37c-9,0-15.75-2.86-15.75-14.42V44.06h-7.06Z"/><path class="cls-1" d="M159.88,13.47h30.9c16.36,0,28,6.85,28,23.43,0,16.06-10.53,24.65-27.51,24.65H175V89H159.88Zm28,43c11.15,0,15.45-5,15.45-19.23,0-13.7-4.4-18.61-15.86-18.61H175V56.43Z"/><path class="cls-1" d="M220.54,74.64c0-10.23,6.34-15.34,19.44-15.34h12.68V53.77c0-8.59-4.71-9.92-13.09-9.92a98.07,98.07,0,0,0-12.89.92v-4.4a100.71,100.71,0,0,1,16.26-1.53c15.86,0,23.63,4.09,23.63,16.06V89H252.76V86.1c-3.17,2.15-8,3.68-13.91,3.68C226.47,89.78,220.54,83.54,220.54,74.64Zm32.12,8.6V63.39h-8.18c-7.27,0-9.52,2.86-9.52,10.54,0,7.87,2.25,10.74,9.21,10.74A24.67,24.67,0,0,0,252.66,83.24Z"/><path class="cls-1" d="M275.16,64.21c0-17.39,10.23-25.37,27.93-25.37a67.91,67.91,0,0,1,13.6,1.33v4.3a74.24,74.24,0,0,0-9.51-.72c-11.76,0-17.18,4.3-17.18,20.36s5.42,20.46,17.18,20.46a63.78,63.78,0,0,0,9.82-.82v4.4a81.92,81.92,0,0,1-13.91,1.33C285.29,89.48,275.16,81.39,275.16,64.21Z"/><path class="cls-1" d="M345.44,67.07l-6.24,6.65V89H324.77V13.47H339.2v53.4l25.88-27.52h7.06L355.67,56.74,374.28,89H358.12Z"/><path class="cls-2" d="M157.23,124.52l10.52,18.38,10.46-18.38L172.55,85l2.38-4.21L175,74l-5,8.8-4.38.1-5.8-8.31c0,2.4.09,4.79.13,7.19L163,85Z"/><path class="cls-3" d="M186,8.39a1.29,1.29,0,0,0-1.65.43,21.69,21.69,0,0,1-1.72,2.11l-.77-.85L156,24.74l.34,1.1a20.91,20.91,0,0,1-2.7.39,1.28,1.28,0,0,0-1.21,1.2,1,1,0,0,0,1.16,1,24.15,24.15,0,0,0,10.08-3.08L178.44,17a24,24,0,0,0,7.81-7.08A1,1,0,0,0,186,8.39Z"/><path class="cls-3" d="M174.49,2a7,7,0,0,0-8.57-1,7.93,7.93,0,0,0-2.53,2.29,5.28,5.28,0,0,1-3.78,2.14,7.77,7.77,0,0,0-5.58,3,6.45,6.45,0,0,0-1.21,5.84l2.53,8.32,25-14.18Z"/><polygon class="cls-2" points="155.35 22.62 156 24.74 181.83 10.08 180.34 8.44 155.35 22.62"/><rect class="cls-1" x="168.59" y="95.36" width="15.73" height="3.74"/><path class="cls-1" d="M186.19,102.61v28.18h-2.64V95.36h7.25l11.52,29L213.7,95.36h7v35.43h-7V102.42l-11.19,28.37h-5Z"/><path class="cls-1" d="M226.37,122.67V107.5h6.86v15.22c0,3.79,1.25,5.38,5.09,5.38a14,14,0,0,0,4.13-.67V107.5h6.91v23.29h-6.63v-2a12.06,12.06,0,0,1-7.53,2.4C229.92,131.17,226.37,128.87,226.37,122.67Z"/><path class="cls-1" d="M253.2,130.31v-2a53.88,53.88,0,0,0,7.39.43c4.9,0,6.53-1.1,6.53-3.26a2.27,2.27,0,0,0-1.3-2.31,20.78,20.78,0,0,0-4.51-1.48c-2.4-.63-4.71-1.25-6-2.6a6,6,0,0,1-1.78-4.51c0-6,5.33-7.3,10.08-7.3a39.84,39.84,0,0,1,7.35.68V110a42.44,42.44,0,0,0-6-.43c-3.89,0-5.33,1-5.38,2.93a2.41,2.41,0,0,0,1.4,2.44,18.86,18.86,0,0,0,4.22,1.4,18.15,18.15,0,0,1,5.76,2.2c1.54,1.11,2.26,2.6,2.21,5.09-.05,5.62-5.33,7.4-11.86,7.4A50.7,50.7,0,0,1,253.2,130.31Z"/><path class="cls-1" d="M276.91,97.57h6.91v6.05h-6.91Zm0,9.93h6.91v23.29h-6.91Z"/><path class="cls-1" d="M288,119.17c0-8.16,4.8-11.91,13.1-11.91a31.47,31.47,0,0,1,6.38.63v2a35.08,35.08,0,0,0-4.46-.33c-5.52,0-8.06,2-8.06,9.55s2.54,9.6,8.06,9.6a29.86,29.86,0,0,0,4.61-.38v2.06a37.77,37.77,0,0,1-6.53.63C292.75,131,288,127.23,288,119.17Z"/></svg>