<?xml version="1.0" encoding="utf-8"?>
<!-- Generator: Adobe Illustrator 22.1.0, SVG Export Plug-In . SVG Version: 6.00 Build 0)  -->
<svg version="1.1" id="Layer_1" xmlns="http://www.w3.org/2000/svg" xmlns:xlink="http://www.w3.org/1999/xlink" x="0px" y="0px"
	 viewBox="0 0 374.3 142.9" style="enable-background:new 0 0 374.3 142.9;" xml:space="preserve">
<style type="text/css">
	.st0{fill:#FFFFFF;}
	.st1{fill:#010101;}
	.st2{fill:#8C3736;}
</style>
<g>
	<path class="st0" d="M26.9,59.2H14.7V89H0V13.5h29.1c17.7,0,30.3,6.2,30.3,22.7c0,11-6.4,18.3-17,21.4L60.1,89H43.8L26.9,59.2z
		 M28.2,53.9c11.4,0,16-4.5,16-17.8c0-13.3-4.7-17.5-16.4-17.5H14.7v35.3H28.2z"/>
	<path class="st0" d="M65,74.6c0-10.2,6.3-15.3,19.4-15.3h12.7v-5.5c0-8.6-4.7-9.9-13.1-9.9c-4.4,0-9.3,0.4-12.9,0.9v-4.4
		c4.8-0.8,10.6-1.5,16.3-1.5c15.9,0,23.6,4.1,23.6,16.1V89H97.2v-2.9c-3.2,2.1-8,3.7-13.9,3.7C70.9,89.8,65,83.5,65,74.6z
		 M97.1,83.2V63.4h-8.2c-7.3,0-9.5,2.9-9.5,10.5c0,7.9,2.3,10.7,9.2,10.7C92.4,84.7,95.5,83.8,97.1,83.2z"/>
	<path class="st0" d="M117.2,39.4h7.1V25.1H139v14.2h12.1v4.7H139v33.2c0,5.5,2,7.2,7.2,7.2c1.8,0,3.3-0.3,4.9-0.6v4.4
		c-3.5,0.7-6.8,1.1-11,1.1c-9,0-15.8-2.9-15.8-14.4V44.1h-7.1V39.4z"/>
	<path class="st0" d="M159.9,13.5h30.9c16.4,0,28,6.9,28,23.4c0,16.1-10.5,24.7-27.5,24.7H175V89h-15.1V13.5z M187.9,56.4
		c11.1,0,15.4-5,15.4-19.2c0-13.7-4.4-18.6-15.9-18.6H175v37.8H187.9z"/>
	<path class="st0" d="M220.5,74.6c0-10.2,6.3-15.3,19.4-15.3h12.7v-5.5c0-8.6-4.7-9.9-13.1-9.9c-4.4,0-9.3,0.4-12.9,0.9v-4.4
		c4.8-0.8,10.6-1.5,16.3-1.5c15.9,0,23.6,4.1,23.6,16.1V89h-13.8v-2.9c-3.2,2.1-8,3.7-13.9,3.7C226.5,89.8,220.5,83.5,220.5,74.6z
		 M252.7,83.2V63.4h-8.2c-7.3,0-9.5,2.9-9.5,10.5c0,7.9,2.3,10.7,9.2,10.7C248,84.7,251.1,83.8,252.7,83.2z"/>
	<path class="st0" d="M275.2,64.2c0-17.4,10.2-25.4,27.9-25.4c5,0,9.6,0.5,13.6,1.3v4.3c-3.2-0.4-6.3-0.7-9.5-0.7
		c-11.8,0-17.2,4.3-17.2,20.4c0,16,5.4,20.5,17.2,20.5c3.2,0,6.6-0.3,9.8-0.8v4.4c-4.1,0.7-8.9,1.3-13.9,1.3
		C285.3,89.5,275.2,81.4,275.2,64.2z"/>
	<path class="st0" d="M345.4,67.1l-6.2,6.6V89h-14.4V13.5h14.4v53.4l25.9-27.5h7.1l-16.5,17.4L374.3,89h-16.2L345.4,67.1z"/>
</g>
<path d="M157.2,124.5l10.5,18.4l10.5-18.4L172.5,85c0.8-1.4,1.6-2.8,2.4-4.2c0-2.3,0-4.5,0.1-6.8c-1.7,2.9-3.3,5.9-5,8.8l-4.4,0.1
	c-1.9-2.8-3.9-5.5-5.8-8.3c0,2.4,0.1,4.8,0.1,7.2c1,1,2,2.1,3,3.1L157.2,124.5z"/>
<g>
	<g>
		<g>
			<path class="st1" d="M186,8.4c-0.5-0.3-1.3-0.1-1.7,0.4c-0.5,0.7-1.1,1.4-1.7,2.1l-0.8-0.8L156,24.7l0.3,1.1
				c-0.9,0.2-1.8,0.3-2.7,0.4c-0.7,0-1.2,0.6-1.2,1.2c0,0.6,0.5,1.1,1.2,1c3.5-0.3,7-1.3,10.1-3.1l14.8-8.4c3.1-1.8,5.8-4.2,7.8-7.1
				C186.6,9.4,186.5,8.7,186,8.4z"/>
		</g>
	</g>
	<g>
		<g>
			<path class="st1" d="M174.5,2c-2-2.2-5.6-2.6-8.6-1c-1,0.6-1.9,1.4-2.5,2.3c-0.8,1.2-2.3,2-3.8,2.1c-2.2,0.2-4.2,1.3-5.6,3
				c-1.4,1.8-1.8,3.9-1.2,5.8l2.5,8.3l25-14.2L174.5,2z"/>
		</g>
	</g>
</g>
<polygon class="st2" points="155.3,22.6 156,24.7 181.8,10.1 180.3,8.4 "/>
<rect x="168.6" y="95.4" class="st0" width="15.7" height="3.7"/>
<g>
	<path class="st0" d="M186.2,102.5v27.9h-2.6v-35h7.2l11.5,28.6l11.4-28.6h7v35h-7v-28.1l-11.2,28.1h-5L186.2,102.5z"/>
	<path class="st0" d="M226.4,122.4v-15h6.9v15.1c0,3.8,1.2,5.3,5.1,5.3c1.6,0,2.8-0.3,4.1-0.7v-19.7h6.9v23h-6.6v-2
		c-1.6,1.4-4.5,2.4-7.5,2.4C229.9,130.8,226.4,128.5,226.4,122.4z"/>
	<path class="st0" d="M253.2,129.9v-2c2.3,0.3,4.3,0.4,7.4,0.4c4.9,0,6.5-1.1,6.5-3.2c0-1.1-0.4-1.8-1.3-2.3c-1.1-0.6-2.6-1-4.5-1.5
		c-2.4-0.6-4.7-1.2-6-2.6c-1.1-1.1-1.8-2.5-1.8-4.5c0-5.9,5.3-7.2,10.1-7.2c2.7,0,5.3,0.3,7.3,0.7v2c-2-0.3-4.1-0.4-6-0.4
		c-3.9,0-5.3,0.9-5.4,2.9c0,1.3,0.5,1.9,1.4,2.4c1.1,0.6,2.5,0.9,4.2,1.4c2.4,0.6,4.4,1.2,5.8,2.2c1.5,1.1,2.3,2.6,2.2,5
		c0,5.6-5.3,7.3-11.9,7.3C258.2,130.6,255.7,130.3,253.2,129.9z"/>
	<path class="st0" d="M276.9,97.5h6.9v6h-6.9V97.5z M276.9,107.4h6.9v23h-6.9V107.4z"/>
	<path class="st0" d="M288,118.9c0-8.1,4.8-11.8,13.1-11.8c2.4,0,4.5,0.2,6.4,0.6v2c-1.5-0.2-3-0.3-4.5-0.3c-5.5,0-8.1,2-8.1,9.5
		c0,7.4,2.5,9.5,8.1,9.5c1.5,0,3.1-0.1,4.6-0.4v2c-1.9,0.3-4.2,0.6-6.5,0.6C292.7,130.6,288,126.9,288,118.9z"/>
</g>
</svg>
